<mxfile host="app.diagrams.net" modified="2022-04-04T12:37:57.738Z" agent="5.0 (X11)" etag="RIEfK_IYzvmP_F3ev1R7" version="17.4.0" type="github">
  <diagram id="mqcoBNqN5jFAtbz3qUNQ" name="Page-1">
    <mxGraphModel dx="1348" dy="793" grid="1" gridSize="10" guides="1" tooltips="1" connect="1" arrows="1" fold="1" page="1" pageScale="1" pageWidth="827" pageHeight="1169" background="#E1D5E7" math="0" shadow="0">
      <root>
        <mxCell id="0" />
        <mxCell id="1" parent="0" />
        <mxCell id="0BLlIOfwIHSrkyi2slhk-3" style="edgeStyle=orthogonalEdgeStyle;rounded=0;orthogonalLoop=1;jettySize=auto;html=1;entryX=0.5;entryY=1;entryDx=0;entryDy=0;fontSize=14;" edge="1" parent="1" source="0BLlIOfwIHSrkyi2slhk-1" target="0BLlIOfwIHSrkyi2slhk-2">
          <mxGeometry relative="1" as="geometry" />
        </mxCell>
        <mxCell id="0BLlIOfwIHSrkyi2slhk-8" value="" style="edgeStyle=orthogonalEdgeStyle;rounded=0;orthogonalLoop=1;jettySize=auto;html=1;fontSize=14;" edge="1" parent="1" source="0BLlIOfwIHSrkyi2slhk-1" target="0BLlIOfwIHSrkyi2slhk-7">
          <mxGeometry relative="1" as="geometry" />
        </mxCell>
        <mxCell id="0BLlIOfwIHSrkyi2slhk-10" style="edgeStyle=orthogonalEdgeStyle;rounded=0;orthogonalLoop=1;jettySize=auto;html=1;exitX=0.25;exitY=1;exitDx=0;exitDy=0;fontSize=18;entryX=0.5;entryY=0;entryDx=0;entryDy=0;" edge="1" parent="1" source="0BLlIOfwIHSrkyi2slhk-1" target="0BLlIOfwIHSrkyi2slhk-11">
          <mxGeometry relative="1" as="geometry">
            <mxPoint x="289" y="510" as="targetPoint" />
          </mxGeometry>
        </mxCell>
        <mxCell id="0BLlIOfwIHSrkyi2slhk-12" style="edgeStyle=orthogonalEdgeStyle;rounded=0;orthogonalLoop=1;jettySize=auto;html=1;exitX=0.25;exitY=1;exitDx=0;exitDy=0;fontSize=14;" edge="1" parent="1" source="0BLlIOfwIHSrkyi2slhk-1" target="0BLlIOfwIHSrkyi2slhk-13">
          <mxGeometry relative="1" as="geometry">
            <mxPoint x="369" y="640" as="targetPoint" />
          </mxGeometry>
        </mxCell>
        <mxCell id="0BLlIOfwIHSrkyi2slhk-14" style="edgeStyle=orthogonalEdgeStyle;rounded=0;orthogonalLoop=1;jettySize=auto;html=1;exitX=0.25;exitY=1;exitDx=0;exitDy=0;fontSize=14;" edge="1" parent="1" source="0BLlIOfwIHSrkyi2slhk-1" target="0BLlIOfwIHSrkyi2slhk-15">
          <mxGeometry relative="1" as="geometry">
            <mxPoint x="459" y="500" as="targetPoint" />
          </mxGeometry>
        </mxCell>
        <mxCell id="0BLlIOfwIHSrkyi2slhk-21" style="edgeStyle=orthogonalEdgeStyle;rounded=0;orthogonalLoop=1;jettySize=auto;html=1;exitX=0.75;exitY=1;exitDx=0;exitDy=0;fontSize=14;" edge="1" parent="1" source="0BLlIOfwIHSrkyi2slhk-1" target="0BLlIOfwIHSrkyi2slhk-22">
          <mxGeometry relative="1" as="geometry">
            <mxPoint x="559" y="530" as="targetPoint" />
          </mxGeometry>
        </mxCell>
        <mxCell id="0BLlIOfwIHSrkyi2slhk-28" value="" style="edgeStyle=orthogonalEdgeStyle;rounded=0;orthogonalLoop=1;jettySize=auto;html=1;fontSize=14;" edge="1" parent="1" source="0BLlIOfwIHSrkyi2slhk-1" target="0BLlIOfwIHSrkyi2slhk-27">
          <mxGeometry relative="1" as="geometry" />
        </mxCell>
        <mxCell id="0BLlIOfwIHSrkyi2slhk-1" value="&lt;b&gt;&lt;font style=&quot;font-size: 14px&quot;&gt;&lt;font style=&quot;font-size: 18px&quot;&gt;Software libre&lt;/font&gt;&lt;br&gt;&lt;/font&gt;&lt;/b&gt;" style="rounded=1;whiteSpace=wrap;html=1;strokeWidth=4;" vertex="1" parent="1">
          <mxGeometry x="339" y="380" width="120" height="60" as="geometry" />
        </mxCell>
        <mxCell id="0BLlIOfwIHSrkyi2slhk-2" value="Una forma ética de entender el software" style="rounded=1;whiteSpace=wrap;html=1;fontSize=14;" vertex="1" parent="1">
          <mxGeometry x="249" y="220" width="150" height="60" as="geometry" />
        </mxCell>
        <mxCell id="0BLlIOfwIHSrkyi2slhk-4" value="es" style="text;html=1;strokeColor=none;fillColor=none;align=center;verticalAlign=middle;whiteSpace=wrap;rounded=0;fontSize=14;" vertex="1" parent="1">
          <mxGeometry x="329" y="305" width="60" height="30" as="geometry" />
        </mxCell>
        <mxCell id="0BLlIOfwIHSrkyi2slhk-7" value="&lt;font style=&quot;font-size: 14px&quot;&gt;Valores&lt;b&gt;&lt;font style=&quot;font-size: 14px&quot;&gt;&lt;br&gt;&lt;/font&gt;&lt;/b&gt;&lt;/font&gt;" style="rounded=1;whiteSpace=wrap;html=1;" vertex="1" parent="1">
          <mxGeometry x="99" y="290" width="120" height="60" as="geometry" />
        </mxCell>
        <mxCell id="0BLlIOfwIHSrkyi2slhk-9" value="tiene" style="text;html=1;strokeColor=none;fillColor=none;align=center;verticalAlign=middle;whiteSpace=wrap;rounded=0;fontSize=14;" vertex="1" parent="1">
          <mxGeometry x="249" y="380" width="60" height="30" as="geometry" />
        </mxCell>
        <mxCell id="0BLlIOfwIHSrkyi2slhk-16" style="edgeStyle=orthogonalEdgeStyle;rounded=0;orthogonalLoop=1;jettySize=auto;html=1;fontSize=14;" edge="1" parent="1" source="0BLlIOfwIHSrkyi2slhk-11" target="0BLlIOfwIHSrkyi2slhk-17">
          <mxGeometry relative="1" as="geometry">
            <mxPoint x="129" y="630" as="targetPoint" />
          </mxGeometry>
        </mxCell>
        <mxCell id="0BLlIOfwIHSrkyi2slhk-11" value="&lt;font style=&quot;font-size: 14px&quot;&gt;Documentación&lt;/font&gt;" style="rounded=1;whiteSpace=wrap;html=1;fontSize=18;" vertex="1" parent="1">
          <mxGeometry x="39" y="530" width="120" height="60" as="geometry" />
        </mxCell>
        <mxCell id="0BLlIOfwIHSrkyi2slhk-18" style="edgeStyle=orthogonalEdgeStyle;rounded=0;orthogonalLoop=1;jettySize=auto;html=1;exitX=0.5;exitY=1;exitDx=0;exitDy=0;fontSize=14;" edge="1" parent="1" source="0BLlIOfwIHSrkyi2slhk-13" target="0BLlIOfwIHSrkyi2slhk-17">
          <mxGeometry relative="1" as="geometry" />
        </mxCell>
        <mxCell id="0BLlIOfwIHSrkyi2slhk-13" value="Programa ejecutable" style="rounded=1;whiteSpace=wrap;html=1;fontSize=14;" vertex="1" parent="1">
          <mxGeometry x="179" y="530" width="120" height="60" as="geometry" />
        </mxCell>
        <mxCell id="0BLlIOfwIHSrkyi2slhk-19" style="edgeStyle=orthogonalEdgeStyle;rounded=0;orthogonalLoop=1;jettySize=auto;html=1;entryX=0.5;entryY=0;entryDx=0;entryDy=0;fontSize=14;" edge="1" parent="1" source="0BLlIOfwIHSrkyi2slhk-15" target="0BLlIOfwIHSrkyi2slhk-17">
          <mxGeometry relative="1" as="geometry">
            <Array as="points">
              <mxPoint x="379" y="630" />
              <mxPoint x="169" y="630" />
            </Array>
          </mxGeometry>
        </mxCell>
        <mxCell id="0BLlIOfwIHSrkyi2slhk-15" value="Código fuente" style="rounded=1;whiteSpace=wrap;html=1;fontSize=14;" vertex="1" parent="1">
          <mxGeometry x="319" y="530" width="120" height="60" as="geometry" />
        </mxCell>
        <mxCell id="0BLlIOfwIHSrkyi2slhk-17" value="Licencias libres" style="rounded=1;whiteSpace=wrap;html=1;fontSize=14;" vertex="1" parent="1">
          <mxGeometry x="109" y="670" width="120" height="60" as="geometry" />
        </mxCell>
        <mxCell id="0BLlIOfwIHSrkyi2slhk-20" value="genera o distribuye" style="text;html=1;strokeColor=none;fillColor=none;align=center;verticalAlign=middle;whiteSpace=wrap;rounded=0;fontSize=14;" vertex="1" parent="1">
          <mxGeometry x="188" y="460" width="180" height="30" as="geometry" />
        </mxCell>
        <mxCell id="0BLlIOfwIHSrkyi2slhk-23" style="edgeStyle=orthogonalEdgeStyle;rounded=0;orthogonalLoop=1;jettySize=auto;html=1;fontSize=14;" edge="1" parent="1" source="0BLlIOfwIHSrkyi2slhk-22" target="0BLlIOfwIHSrkyi2slhk-24">
          <mxGeometry relative="1" as="geometry">
            <mxPoint x="509" y="610" as="targetPoint" />
          </mxGeometry>
        </mxCell>
        <mxCell id="0BLlIOfwIHSrkyi2slhk-22" value="Mejoras / calidad" style="rounded=1;whiteSpace=wrap;html=1;fontSize=14;" vertex="1" parent="1">
          <mxGeometry x="499" y="500" width="120" height="60" as="geometry" />
        </mxCell>
        <mxCell id="0BLlIOfwIHSrkyi2slhk-41" style="edgeStyle=orthogonalEdgeStyle;rounded=0;orthogonalLoop=1;jettySize=auto;html=1;entryX=0.25;entryY=1;entryDx=0;entryDy=0;fontSize=18;dashed=1;" edge="1" parent="1" source="0BLlIOfwIHSrkyi2slhk-24" target="0BLlIOfwIHSrkyi2slhk-15">
          <mxGeometry relative="1" as="geometry">
            <Array as="points">
              <mxPoint x="419" y="650" />
              <mxPoint x="419" y="610" />
              <mxPoint x="349" y="610" />
            </Array>
          </mxGeometry>
        </mxCell>
        <mxCell id="0BLlIOfwIHSrkyi2slhk-43" style="edgeStyle=orthogonalEdgeStyle;rounded=0;orthogonalLoop=1;jettySize=auto;html=1;exitX=1;exitY=0.25;exitDx=0;exitDy=0;entryX=0;entryY=0.25;entryDx=0;entryDy=0;dashed=1;fontSize=18;" edge="1" parent="1" source="0BLlIOfwIHSrkyi2slhk-24" target="0BLlIOfwIHSrkyi2slhk-26">
          <mxGeometry relative="1" as="geometry" />
        </mxCell>
        <mxCell id="0BLlIOfwIHSrkyi2slhk-24" value="Desarrolladoras" style="rounded=1;whiteSpace=wrap;html=1;fontSize=14;" vertex="1" parent="1">
          <mxGeometry x="403" y="620" width="120" height="60" as="geometry" />
        </mxCell>
        <mxCell id="0BLlIOfwIHSrkyi2slhk-25" style="edgeStyle=orthogonalEdgeStyle;rounded=0;orthogonalLoop=1;jettySize=auto;html=1;exitX=0.5;exitY=1;exitDx=0;exitDy=0;fontSize=14;" edge="1" parent="1" source="0BLlIOfwIHSrkyi2slhk-22" target="0BLlIOfwIHSrkyi2slhk-26">
          <mxGeometry relative="1" as="geometry">
            <mxPoint x="649" y="620" as="targetPoint" />
          </mxGeometry>
        </mxCell>
        <mxCell id="0BLlIOfwIHSrkyi2slhk-44" style="edgeStyle=orthogonalEdgeStyle;rounded=0;orthogonalLoop=1;jettySize=auto;html=1;exitX=0;exitY=0.75;exitDx=0;exitDy=0;entryX=1;entryY=0.75;entryDx=0;entryDy=0;dashed=1;fontSize=18;startArrow=none;" edge="1" parent="1" source="0BLlIOfwIHSrkyi2slhk-45" target="0BLlIOfwIHSrkyi2slhk-24">
          <mxGeometry relative="1" as="geometry" />
        </mxCell>
        <mxCell id="0BLlIOfwIHSrkyi2slhk-26" value="Usuarias" style="rounded=1;whiteSpace=wrap;html=1;fontSize=14;" vertex="1" parent="1">
          <mxGeometry x="669" y="620" width="120" height="60" as="geometry" />
        </mxCell>
        <mxCell id="0BLlIOfwIHSrkyi2slhk-31" value="" style="edgeStyle=orthogonalEdgeStyle;rounded=0;orthogonalLoop=1;jettySize=auto;html=1;fontSize=14;" edge="1" parent="1" source="0BLlIOfwIHSrkyi2slhk-27" target="0BLlIOfwIHSrkyi2slhk-30">
          <mxGeometry relative="1" as="geometry" />
        </mxCell>
        <mxCell id="0BLlIOfwIHSrkyi2slhk-34" value="" style="edgeStyle=orthogonalEdgeStyle;rounded=0;orthogonalLoop=1;jettySize=auto;html=1;fontSize=14;" edge="1" parent="1" source="0BLlIOfwIHSrkyi2slhk-27" target="0BLlIOfwIHSrkyi2slhk-33">
          <mxGeometry relative="1" as="geometry" />
        </mxCell>
        <mxCell id="0BLlIOfwIHSrkyi2slhk-35" value="" style="edgeStyle=orthogonalEdgeStyle;rounded=0;orthogonalLoop=1;jettySize=auto;html=1;fontSize=14;" edge="1" parent="1" source="0BLlIOfwIHSrkyi2slhk-27" target="0BLlIOfwIHSrkyi2slhk-33">
          <mxGeometry relative="1" as="geometry" />
        </mxCell>
        <mxCell id="0BLlIOfwIHSrkyi2slhk-37" value="" style="edgeStyle=orthogonalEdgeStyle;rounded=0;orthogonalLoop=1;jettySize=auto;html=1;fontSize=14;entryX=0;entryY=0.5;entryDx=0;entryDy=0;" edge="1" parent="1" source="0BLlIOfwIHSrkyi2slhk-27" target="0BLlIOfwIHSrkyi2slhk-36">
          <mxGeometry relative="1" as="geometry">
            <Array as="points">
              <mxPoint x="629" y="250" />
              <mxPoint x="629" y="340" />
            </Array>
          </mxGeometry>
        </mxCell>
        <mxCell id="0BLlIOfwIHSrkyi2slhk-38" style="edgeStyle=orthogonalEdgeStyle;rounded=0;orthogonalLoop=1;jettySize=auto;html=1;fontSize=14;startArrow=none;exitX=1;exitY=0.5;exitDx=0;exitDy=0;entryX=0;entryY=0.5;entryDx=0;entryDy=0;" edge="1" parent="1" source="0BLlIOfwIHSrkyi2slhk-27" target="0BLlIOfwIHSrkyi2slhk-39">
          <mxGeometry relative="1" as="geometry">
            <mxPoint x="709" y="510" as="targetPoint" />
            <Array as="points">
              <mxPoint x="629" y="250" />
              <mxPoint x="629" y="410" />
            </Array>
          </mxGeometry>
        </mxCell>
        <mxCell id="0BLlIOfwIHSrkyi2slhk-27" value="Libertad" style="rounded=1;whiteSpace=wrap;html=1;" vertex="1" parent="1">
          <mxGeometry x="489" y="220" width="120" height="60" as="geometry" />
        </mxCell>
        <mxCell id="0BLlIOfwIHSrkyi2slhk-30" value="Usar" style="rounded=1;whiteSpace=wrap;html=1;" vertex="1" parent="1">
          <mxGeometry x="649" y="170" width="120" height="60" as="geometry" />
        </mxCell>
        <mxCell id="0BLlIOfwIHSrkyi2slhk-36" value="Modificar" style="rounded=1;whiteSpace=wrap;html=1;" vertex="1" parent="1">
          <mxGeometry x="649" y="310" width="120" height="60" as="geometry" />
        </mxCell>
        <mxCell id="0BLlIOfwIHSrkyi2slhk-39" value="Redistribuir" style="rounded=1;whiteSpace=wrap;html=1;fontSize=14;" vertex="1" parent="1">
          <mxGeometry x="649" y="380" width="120" height="60" as="geometry" />
        </mxCell>
        <mxCell id="0BLlIOfwIHSrkyi2slhk-33" value="Estudiar" style="rounded=1;whiteSpace=wrap;html=1;" vertex="1" parent="1">
          <mxGeometry x="649" y="240" width="120" height="60" as="geometry" />
        </mxCell>
        <mxCell id="0BLlIOfwIHSrkyi2slhk-40" value="" style="edgeStyle=orthogonalEdgeStyle;rounded=0;orthogonalLoop=1;jettySize=auto;html=1;fontSize=14;endArrow=none;" edge="1" parent="1" source="0BLlIOfwIHSrkyi2slhk-27" target="0BLlIOfwIHSrkyi2slhk-33">
          <mxGeometry relative="1" as="geometry">
            <mxPoint x="709" y="480" as="targetPoint" />
            <mxPoint x="609" y="250" as="sourcePoint" />
          </mxGeometry>
        </mxCell>
        <mxCell id="0BLlIOfwIHSrkyi2slhk-42" value="acumula" style="text;html=1;strokeColor=none;fillColor=none;align=center;verticalAlign=middle;whiteSpace=wrap;rounded=0;fontSize=14;" vertex="1" parent="1">
          <mxGeometry x="399" y="440" width="180" height="30" as="geometry" />
        </mxCell>
        <mxCell id="0BLlIOfwIHSrkyi2slhk-45" value="&lt;font style=&quot;font-size: 14px&quot;&gt;Soporte&lt;/font&gt;" style="ellipse;whiteSpace=wrap;html=1;fontSize=18;strokeWidth=1;" vertex="1" parent="1">
          <mxGeometry x="559" y="630" width="60" height="60" as="geometry" />
        </mxCell>
        <mxCell id="0BLlIOfwIHSrkyi2slhk-46" value="" style="edgeStyle=orthogonalEdgeStyle;rounded=0;orthogonalLoop=1;jettySize=auto;html=1;exitX=0;exitY=0.75;exitDx=0;exitDy=0;entryX=1;entryY=0.75;entryDx=0;entryDy=0;dashed=1;fontSize=18;endArrow=none;" edge="1" parent="1" source="0BLlIOfwIHSrkyi2slhk-26" target="0BLlIOfwIHSrkyi2slhk-45">
          <mxGeometry relative="1" as="geometry">
            <mxPoint x="629" y="665" as="sourcePoint" />
            <mxPoint x="523" y="665" as="targetPoint" />
          </mxGeometry>
        </mxCell>
        <mxCell id="0BLlIOfwIHSrkyi2slhk-47" value="se basa en" style="text;html=1;strokeColor=none;fillColor=none;align=center;verticalAlign=middle;whiteSpace=wrap;rounded=0;fontSize=14;" vertex="1" parent="1">
          <mxGeometry x="419" y="380" width="180" height="30" as="geometry" />
        </mxCell>
      </root>
    </mxGraphModel>
  </diagram>
</mxfile>
